<svg width="21" height="20" viewBox="0 0 21 20" fill="none" xmlns="http://www.w3.org/2000/svg">
<path d="M17.4143 4.3H2.71426C2.41426 4.3 2.11426 4.5 2.11426 4.8C2.11426 5.1 2.41426 5.4 2.71426 5.4H4.41426V17.4C4.41426 17.7 4.71426 18 5.01426 18H15.2143C15.5143 18 15.8143 17.7 15.8143 17.4V5.4H17.5143C17.8143 5.4 18.1143 5.1 18.1143 4.8C18.1143 4.5 17.7143 4.3 17.4143 4.3ZM14.6143 16.8H5.51426V5.4H14.6143V16.8Z" fill="black"/>
<path d="M8.31426 3.2H11.7143C12.0143 3.2 12.3143 2.9 12.3143 2.6C12.3143 2.3 12.1143 2 11.8143 2H8.31426C8.01426 2 7.81426 2.3 7.81426 2.6C7.81426 2.9 8.01426 3.2 8.31426 3.2Z" fill="black"/>
<path d="M8.31426 14C8.61426 14 8.91426 13.7 8.91426 13.4V7.7C8.91426 7.4 8.61426 7.1 8.31426 7.1C8.01426 7.1 7.71426 7.4 7.71426 7.7V13.4C7.81426 13.7 8.01426 14 8.31426 14Z" fill="black"/>
<path d="M11.8143 14C12.1143 14 12.4143 13.7 12.4143 13.4V7.7C12.4143 7.4 12.1143 7.1 11.8143 7.1C11.5143 7.1 11.2143 7.5 11.2143 7.7V13.4C11.2143 13.7 11.4143 14 11.8143 14Z" fill="black"/>
</svg>
