<svg width="21" height="20" viewBox="0 0 21 20" fill="none" xmlns="http://www.w3.org/2000/svg">
<path d="M10.0143 19C9.71426 19 9.41426 18.9 9.21426 18.6C3.81426 12.5 2.51426 11.1 2.21426 10.7C1.51426 9.8 1.11426 8.6 1.11426 7.4C1.11426 4.4 3.51426 2 6.61426 2C7.91426 2 9.11426 2.5 10.1143 3.3C11.1143 2.5 12.4143 2 13.6143 2C16.6143 2 19.1143 4.4 19.1143 7.4C19.1143 8.7 18.6143 9.9 17.8143 10.8L10.8143 18.7C10.6143 18.9 10.4143 19 10.0143 19ZM4.01426 9.5C4.31426 9.9 7.51426 13.5 10.1143 16.4L16.3143 9.4C16.8143 8.9 17.0143 8.2 17.0143 7.4C17.0143 5.6 15.5143 4.1 13.7143 4.1C12.7143 4.1 11.7143 4.6 11.0143 5.4C10.7143 5.7 10.4143 5.8 10.1143 5.8C9.81426 5.8 9.51426 5.6 9.31426 5.4C8.61426 4.6 7.61426 4.1 6.61426 4.1C4.81426 4.1 3.31426 5.6 3.31426 7.4C3.21426 8.3 3.61426 9 4.01426 9.5C3.91426 9.5 3.91426 9.5 4.01426 9.5Z" fill="black"/>
</svg>
