<svg width="21" height="20" viewBox="0 0 21 20" fill="none" xmlns="http://www.w3.org/2000/svg">
<path d="M19.6143 18.0083L15.9143 14.3287C16.9143 13.0359 17.6143 11.3453 17.6143 9.4558C17.6143 5.08011 14.0143 1.5 9.61426 1.5C5.21426 1.5 1.61426 5.17956 1.61426 9.55525C1.61426 13.9309 5.21426 17.511 9.61426 17.511C11.4143 17.511 13.1143 16.9144 14.5143 15.8204L18.2143 19.5L19.6143 18.0083ZM9.61426 15.5221C6.31426 15.5221 3.61426 12.837 3.61426 9.55525C3.61426 6.27348 6.31426 3.5884 9.61426 3.5884C12.9143 3.5884 15.6143 6.27348 15.6143 9.55525C15.6143 12.837 12.9143 15.5221 9.61426 15.5221Z" fill="black"/>
</svg>
